<svg width="308" height="31" viewBox="0 0 308 31" xmlns="http://www.w3.org/2000/svg"><path d="M6.343 11.125v.945H1.074V4.072h5.27v.946H2.137v2.191h4.205v.945H2.138v2.97h4.205zm4.442-2.1l2.358 3.045H11.87l-1.703-2.304-1.713 2.304H7.278L9.62 9.078 7.3 6.07h1.272l1.692 2.267 1.697-2.267h1.182l-2.358 2.955zm4.684 2.744v2.514h-1.01V6.07h1.01V6.7q.95-.795 1.976-.795 1.075 0 1.684.82.61.818.61 2.274 0 1.445-.766 2.317-.765.873-1.888.873-.864 0-1.616-.419zm0-4.221v3.4q.714.332 1.44.332.842 0 1.315-.569.473-.57.473-1.686 0-2.16-1.51-2.16-.805 0-1.718.683zm6.864-3.835v8.357h-1.01V3.713h1.01zm4.345 8.524q-1.267 0-2.02-.844-.751-.843-.751-2.32 0-1.472.749-2.32.75-.849 2.022-.849 1.257 0 2.012.851.754.852.754 2.318 0 1.466-.752 2.315t-2.014.849zm0-5.463q-1.73 0-1.73 2.299 0 1.133.455 1.713.453.58 1.275.58.806 0 1.265-.577.46-.577.46-1.716 0-2.299-1.725-2.299zm8.073-.64v1.038h-.054l-.284-.054q-.317-.048-.656-.048-.827 0-1.74.74v4.26h-1.01v-6h1.01v.887q1.085-.887 1.998-.887.35 0 .736.065zm5.892 2.493v.548h-4.42q0 1.01.566 1.582.567.572 1.566.572 1.17 0 2.116-.725h.054v1.1q-1.214.506-2.16.506-1.498 0-2.333-.809-.835-.808-.835-2.296 0-1.477.803-2.339.803-.862 2.113-.862 1.214 0 1.872.712.658.711.658 2.011zm-4.42-.225h3.437q-.01-1.665-1.6-1.665-.8 0-1.284.47t-.553 1.195zm12.165 3.835q-1.267 0-2.02-.844-.751-.843-.751-2.32 0-1.472.749-2.32.75-.849 2.022-.849 1.257 0 2.012.851.754.852.754 2.318 0 1.466-.752 2.315t-2.014.849zm0-5.463q-1.73 0-1.73 2.299 0 1.133.455 1.713.453.58 1.275.58.806 0 1.265-.577.46-.577.46-1.716 0-2.299-1.725-2.299zm9.303-.704v6h-1.01v-.666q-1.036.833-2.009.833-.961 0-1.48-.586-.518-.585-.518-1.686V6.07h1.01v3.417q0 1.01.258 1.399.258.39 1.015.39.763 0 1.724-.726V6.07h1.01zm5.73.065v1.037h-.053l-.285-.054q-.316-.048-.655-.048-.827 0-1.74.74v4.26h-1.01v-6h1.01v.887q1.085-.887 1.998-.887.35 0 .736.065zm8.562 0v1.037h-.053l-.285-.054q-.317-.048-.655-.048-.827 0-1.74.74v4.26h-1.01v-6h1.01v.887q1.084-.887 1.998-.887.349 0 .735.065zm5.892 2.492v.548h-4.42q0 1.01.567 1.582.566.572 1.565.572 1.171 0 2.117-.725h.053v1.1q-1.214.506-2.159.506-1.498 0-2.334-.809-.835-.808-.835-2.296 0-1.477.803-2.339.803-.862 2.114-.862 1.214 0 1.872.712.657.711.657 2.011zm-4.42-.225h3.438q-.011-1.665-1.601-1.665-.8 0-1.284.47-.483.47-.553 1.195zm5.548 3.308v-1.133h.054q1.064.784 2.186.784 1.418 0 1.418-.892 0-.435-.298-.61-.298-.174-1.254-.351-1.268-.236-1.673-.66-.406-.425-.406-1.091 0-.795.656-1.313.655-.519 1.767-.519 1.063 0 2.003.452v1.08h-.054q-.966-.678-2.025-.678-.547 0-.931.213-.384.212-.384.63 0 .42.306.616t1.278.378q.806.15 1.182.323.376.172.62.515.244.344.244.887 0 .827-.684 1.35-.685.524-1.85.524-1.113 0-2.155-.505zm8.481.527q-1.267 0-2.02-.844-.751-.843-.751-2.32 0-1.472.75-2.32.748-.849 2.021-.849 1.257 0 2.012.851.754.852.754 2.318 0 1.466-.751 2.315-.752.849-2.015.849zm0-5.463q-1.73 0-1.73 2.299 0 1.133.455 1.713.454.58 1.275.58.806 0 1.265-.577.46-.577.46-1.716 0-2.299-1.725-2.299zm9.303-.704v6h-1.01v-.666q-1.036.833-2.008.833-.962 0-1.48-.586-.518-.585-.518-1.686V6.07h1.01v3.417q0 1.01.257 1.399.258.39 1.015.39.763 0 1.724-.726V6.07h1.01zm5.731.065v1.037h-.054l-.284-.054q-.317-.048-.656-.048-.827 0-1.74.74v4.26h-1.01v-6h1.01v.887q1.085-.887 1.998-.887.35 0 .736.065zm5.387 4.447v1.112q-1.031.51-1.923.51-1.38 0-2.161-.81-.782-.812-.782-2.316 0-1.477.808-2.312.809-.835 2.135-.835.903 0 1.923.5v1.122h-.053q-.978-.747-1.913-.747-.886 0-1.37.597-.483.596-.483 1.675 0 1.09.484 1.67.483.58 1.37.58.956 0 1.912-.746h.053zm6.317-1.955v.548h-4.42q0 1.01.566 1.582.567.572 1.566.572 1.17 0 2.116-.725h.054v1.1q-1.214.506-2.16.506-1.498 0-2.333-.809-.836-.808-.836-2.296 0-1.477.803-2.339.803-.862 2.114-.862 1.214 0 1.872.712.658.711.658 2.011zm-4.42-.225h3.437q-.011-1.665-1.6-1.665-.801 0-1.285.47-.483.47-.553 1.195zm5.548 3.308v-1.133h.053q1.064.784 2.186.784 1.418 0 1.418-.892 0-.435-.298-.61-.298-.174-1.254-.351-1.267-.236-1.673-.66-.406-.425-.406-1.091 0-.795.656-1.313.655-.519 1.767-.519 1.063 0 2.003.452v1.08h-.053q-.967-.678-2.025-.678-.548 0-.932.213-.384.212-.384.63 0 .42.306.616t1.278.378q.806.15 1.182.323.376.172.62.515.245.344.245.887 0 .827-.685 1.35-.685.524-1.85.524-1.112 0-2.154-.505zm13.229-7.944v.924h-.054l-.312-.075q-.349-.075-.596-.075-.639 0-.937.282-.298.282-.298 1.044v.204h1.82v.85h-1.788v5.15h-1.01V6.92h-.682v-.85h.682v-.198q0-1.074.53-1.644.528-.57 1.538-.57.543 0 1.107.108zm2.986 8.47q-1.268 0-2.02-.843t-.752-2.32q0-1.472.75-2.32.749-.849 2.022-.849 1.257 0 2.011.851.755.852.755 2.318 0 1.466-.752 2.315t-2.014.849zm0-5.462q-1.73 0-1.73 2.299 0 1.133.454 1.713.454.58 1.276.58.806 0 1.265-.577.46-.577.46-1.716 0-2.299-1.725-2.299zm8.073-.64v1.038h-.054l-.285-.054q-.317-.048-.655-.048-.827 0-1.74.74v4.26h-1.01v-6h1.01v.887q1.085-.887 1.998-.887.349 0 .736.065zM152.496 4.072v7.998h-1.579V5.995l-1.939 4.152h-1.053l-1.95-4.152v6.075h-1.493V4.072h1.929l2.078 4.4 2.09-4.4h1.917zm7.67 4.99q0 1.461-.816 2.31-.817.848-2.256.848-1.429 0-2.245-.846-.817-.846-.817-2.312 0-.924.384-1.646.384-.722 1.083-1.117.698-.395 1.595-.395 1.44 0 2.256.849.816.848.816 2.31zm-4.57.027q0 .961.383 1.48.384.518 1.115.518.725 0 1.114-.516.39-.515.39-1.482 0-.972-.39-1.49-.39-.519-1.114-.519-.73 0-1.115.508-.384.507-.384 1.501zm7.572-5.376v8.357h-1.573V3.713h1.573zm7.353 5.602h-4.35q.021.864.558 1.361.538.497 1.456.497.494 0 1.082-.183.588-.182.97-.472h.166v1.198q-.639.273-1.222.386-.582.113-1.238.113-1.557 0-2.446-.827-.89-.827-.89-2.288 0-1.477.863-2.347.862-.87 2.307-.87 1.316 0 2.03.733.714.733.714 2.065v.634zm-4.34-.93h2.794q-.011-.703-.35-1.082-.338-.379-.95-.379-.66 0-1.056.403-.394.403-.437 1.058zm8.627 3.82q-1.531 0-2.374-.81-.844-.807-.844-2.317 0-1.471.854-2.323.854-.851 2.348-.851.96 0 2.019.51v1.348h-.22q-.86-.682-1.697-.682-.817 0-1.238.505-.422.505-.422 1.493 0 .983.438 1.488.437.505 1.238.505.317 0 .588-.075.271-.075.497-.194.225-.118.596-.419h.22v1.284q-.37.236-.926.387-.556.15-1.077.15zm8.964-6.15v6.015h-1.563v-.73q-.763.88-1.987.88-1 0-1.531-.56-.532-.562-.532-1.631V6.054h1.569v3.47q0 .72.26 1.06.26.342.782.342.376 0 .773-.156t.655-.424V6.054h1.574zm3.335-2.342v8.357h-1.573V3.713h1.573zm5.533 8.357v-.64q-.827.769-2.09.769-.907 0-1.498-.505t-.591-1.337q0-.532.22-.924t.658-.647q.438-.256 1.136-.403.698-.148 2.17-.212v-.22q0-.463-.395-.718-.395-.255-1.13-.255-.446 0-.844.075-.397.076-1.122.317h-.14V6.19q.516-.145 1.12-.226.604-.08 1.13-.08 1.537 0 2.235.499.698.5.698 1.6v4.088h-1.557zm0-1.456V9.057q-1.058.059-1.596.182-.537.124-.77.355-.234.23-.234.64 0 .429.258.679.258.25.746.25.903 0 1.596-.549zm7.38-4.517v1.44h-.124q-.424-.145-.913-.145-.913.01-1.499.617v4.061h-1.579V6.054h1.58V7q.988-.978 1.906-.978.36 0 .629.075zm4.887 5.973V4.072h2.621q1.708 0 2.423.438.714.438.714 1.4 0 .633-.314 1.079-.314.446-.884.628v.06q.838.171 1.292.674.454.502.454 1.28 0 1.182-.817 1.81-.816.629-2.395.629h-3.094zm1.574-4.78h1.085q.752 0 1.101-.272.35-.27.35-.786 0-.51-.36-.717-.36-.207-1.295-.207h-.881V7.29zm0 3.582h1.208q.967 0 1.416-.317.448-.317.448-.966 0-.586-.43-.9-.43-.314-1.24-.314h-1.402v2.497zm7.777-7.004v1.306h-1.74V3.868h1.74zm-.059 2.186v6.016h-1.622V6.054h1.622zm7.579 3.008q0 1.461-.817 2.31-.816.848-2.255.848-1.43 0-2.246-.846-.816-.846-.816-2.312 0-.924.384-1.646.384-.722 1.082-1.117.699-.395 1.596-.395 1.439 0 2.255.849.817.848.817 2.31zm-4.571.027q0 .961.384 1.48.384.518 1.115.518.725 0 1.114-.516.39-.515.39-1.482 0-.972-.39-1.49-.39-.519-1.114-.519-.73 0-1.115.508-.384.507-.384 1.501zm7.573-5.376v8.357h-1.573V3.713h1.573zm7.568 5.35q0 1.46-.816 2.309-.817.848-2.256.848-1.429 0-2.245-.846-.817-.846-.817-2.312 0-.924.384-1.646.384-.722 1.083-1.117.698-.395 1.595-.395 1.44 0 2.256.849.816.848.816 2.31zm-4.57.026q0 .961.383 1.48.384.518 1.115.518.725 0 1.114-.516.39-.515.39-1.482 0-.972-.39-1.49-.389-.519-1.114-.519-.73 0-1.115.508-.384.507-.384 1.501zm11.472-3.035v5.275q0 1.525-.77 2.27-.772.743-2.35.743-1.048 0-2.063-.269V12.85h.193q.306.14.827.247.521.107 1.193.107 1.44 0 1.44-1.568v-.376q-.468.387-.943.55-.476.164-1.002.164-1.107 0-1.73-.776t-.623-2.178q0-.907.344-1.625.344-.717.956-1.12.612-.402 1.343-.402.483 0 .87.11t.79.362l.07-.29h1.455zm-1.574 4.211V7.381q-.446-.295-1.1-.295-.726 0-1.145.507-.419.508-.419 1.426 0 1.832 1.29 1.832.698 0 1.374-.586zm2.654-4.21h1.638q.306.778.773 2.078.462 1.305.768 2.084l1.655-4.163h1.573q-.36.828-2.69 6.558l-.699 1.67h-1.82l1.1-2.486-2.298-5.742zM3.663 27.62q-1.429 0-2.256-.66Q.58 26.3.58 25.22q0-.677.36-1.206.36-.53 1.225-.986-.64-.489-.895-.94-.255-.451-.255-.945 0-.548.317-.967.317-.419.91-.644.594-.226 1.41-.226.73 0 1.297.212t.868.599q.3.387.3.88 0 .678-.413 1.177-.413.5-1.455.935l1.97 1.73q.054-1.048.054-1.349v-.494H7.87v.558q0 .645-.194 1.239-.193.593-.472.862l1.955 1.724v.091H7.192l-.967-.865q-.451.457-1.098.736-.648.28-1.464.28zm.849-6.45q0-.42-.25-.69-.25-.272-.68-.272-.445 0-.69.247-.244.247-.244.677 0 .704.94 1.429.526-.398.725-.715.199-.316.199-.676zm.88 4.71l-2.406-2.143q-.725.526-.725 1.327 0 .435.242.77.242.336.655.527.414.19.865.19.86 0 1.37-.67zm13.75-6.408v1.263h-3.861v1.777h3.443v1.268H15.28v3.69h-1.595v-7.998h5.457zm6.714 1.982v6.016h-1.563v-.73q-.762.88-1.987.88-.999 0-1.53-.56-.532-.562-.532-1.631v-3.975h1.568v3.47q0 .72.26 1.06.261.342.782.342.376 0 .773-.156.398-.156.656-.424v-4.292h1.573zm7.316 2.025v3.991h-1.58v-3.33q0-.827-.252-1.171-.252-.344-.805-.344-.366 0-.763.153t-.64.39v4.302H27.56v-6.016h1.574v.704q.36-.381.913-.626.553-.244 1.08-.244.982 0 1.514.57.532.569.532 1.621zm4.581 4.125q-1.53 0-2.374-.808-.843-.808-.843-2.318 0-1.471.854-2.323.854-.851 2.347-.851.962 0 2.02.51v1.348h-.22q-.86-.682-1.698-.682-.816 0-1.238.505-.421.505-.421 1.493 0 .983.437 1.488.438.505 1.238.505.317 0 .589-.075.27-.075.496-.194.226-.118.597-.419h.22v1.284q-.37.236-.927.387-.556.15-1.077.15zm3.502-5.006h-.676v-1.144h.676V19.73h1.558v1.724h1.923v1.144h-1.907v2.278q0 .682.089.99.088.31.295.441.207.132.594.132.172 0 .437-.062.266-.062.395-.126h.118v1.144q-.762.193-1.364.193-1.122 0-1.63-.489-.508-.488-.508-1.525v-2.976zm6.338-3.33v1.306h-1.74v-1.306h1.74zm-.059 2.186v6.016h-1.622v-6.016h1.622zm7.579 3.008q0 1.461-.817 2.31-.816.848-2.255.848-1.43 0-2.246-.846-.816-.846-.816-2.312 0-.924.384-1.646.384-.722 1.082-1.117.699-.395 1.596-.395 1.439 0 2.255.849.817.848.817 2.31zm-4.571.027q0 .961.384 1.48.384.518 1.115.518.725 0 1.114-.516.39-.515.39-1.482 0-.972-.39-1.49-.39-.519-1.114-.519-.73 0-1.115.508-.384.507-.384 1.501zm11.553-1.01v3.991h-1.579v-3.33q0-.827-.252-1.171-.253-.344-.806-.344-.365 0-.763.153-.397.153-.639.39v4.302h-1.574v-6.016h1.574v.704q.36-.381.913-.626.553-.244 1.08-.244.983 0 1.514.57.532.569.532 1.621zm5.457 3.991v-.64q-.827.769-2.09.769-.907 0-1.498-.505-.59-.505-.59-1.337 0-.532.22-.924t.658-.647q.437-.256 1.136-.403.698-.148 2.17-.212v-.22q0-.463-.395-.718-.395-.255-1.13-.255-.447 0-.844.075-.397.076-1.123.317h-.14V21.59q.516-.145 1.12-.226.605-.08 1.131-.08 1.536 0 2.235.499.698.5.698 1.6v4.088h-1.558zm0-1.456v-1.557q-1.058.059-1.595.182-.537.124-.77.355-.234.23-.234.64 0 .429.257.679.258.25.747.25.902 0 1.595-.549zm4.899-6.901v8.357h-1.574v-8.357h1.574zm12.767 4.12v3.657q-.478.3-1.367.524-.89.223-1.71.223-1.306 0-2.289-.508-.983-.508-1.507-1.456-.523-.948-.523-2.21 0-1.203.515-2.151.516-.948 1.477-1.469.962-.52 2.203-.52 1.632 0 3.018.692v1.445h-.156q-.596-.382-1.342-.607-.747-.226-1.488-.226-1.214 0-1.875.739-.66.738-.66 2.076 0 1.434.652 2.175.653.741 1.963.741.983 0 1.676-.365V24.43H81.77v-1.198h3.448zm7.219 1.482h-4.351q.021.864.559 1.361.537.497 1.455.497.494 0 1.082-.183.589-.182.97-.472h.166v1.198q-.639.273-1.222.386-.582.113-1.238.113-1.557 0-2.446-.827-.89-.827-.89-2.288 0-1.477.863-2.347.862-.87 2.307-.87 1.316 0 2.03.733.715.733.715 2.065v.634zm-4.34-.93h2.793q-.011-.703-.35-1.082-.338-.379-.95-.379-.66 0-1.056.403-.394.403-.437 1.058zm11.349-.306v3.991h-1.58v-3.33q0-.827-.252-1.171-.252-.344-.805-.344-.366 0-.763.153-.398.153-.64.39v4.302h-1.573v-6.016h1.574v.704q.36-.381.913-.626.553-.244 1.08-.244.982 0 1.514.57.532.569.532 1.621zm7.492.983q0 1.461-.816 2.31-.816.848-2.256.848-1.428 0-2.245-.846-.816-.846-.816-2.312 0-.924.384-1.646.384-.722 1.082-1.117.698-.395 1.595-.395 1.44 0 2.256.849.816.848.816 2.31zm-4.57.027q0 .961.384 1.48.384.518 1.114.518.725 0 1.115-.516.39-.515.39-1.482 0-.972-.39-1.49-.39-.519-1.115-.519-.73 0-1.114.508-.384.507-.384 1.501zm11.445-.886v3.867h-1.573v-3.33q0-.822-.245-1.168-.244-.347-.787-.347-.338 0-.706.145-.368.145-.636.398v4.302h-1.558v-6.016h1.558v.704q.327-.37.86-.62.53-.25 1.084-.25 1.337 0 1.8 1.074.96-1.074 2.142-1.074.962 0 1.483.561.52.561.52 1.63v3.991h-1.573v-3.33q0-.822-.244-1.168-.245-.347-.787-.347-.333 0-.706.148-.374.148-.664.41.032.226.032.42zm7.396-4.335v1.306h-1.74v-1.306h1.74zm-.059 2.186v6.016h-1.622v-6.016h1.622zm4.668 6.15q-1.53 0-2.374-.808-.843-.808-.843-2.318 0-1.471.854-2.323.854-.851 2.347-.851.961 0 2.02.51v1.348h-.22q-.86-.682-1.698-.682-.817 0-1.238.505-.422.505-.422 1.493 0 .983.438 1.488t1.238.505q.317 0 .588-.075.271-.075.497-.194.225-.118.596-.419h.22v1.284q-.37.236-.926.387-.556.15-1.077.15zm8.164-1.955q0 .908-.725 1.44-.725.531-1.96.531-.661 0-1.322-.126-.66-.126-1.144-.362v-1.316h.124q.37.365.996.582.626.218 1.26.218.665 0 .969-.207.303-.207.303-.55 0-.204-.08-.325-.08-.121-.253-.199-.171-.078-.445-.134l-.661-.137q-.854-.167-1.297-.395-.443-.228-.68-.58-.236-.352-.236-.851 0-.543.33-.986.33-.443.932-.693.602-.25 1.365-.25.574 0 1.197.116.623.115 1.053.314v1.305h-.129q-.467-.338-1.02-.518-.554-.18-1.123-.18-.494 0-.798.19-.303.191-.303.497 0 .248.113.38.113.13.403.233.29.102 1.01.241 1.111.21 1.616.62.505.412.505 1.142z" fill="#fff"/></svg>