<svg id="Layer_1" xmlns="http://www.w3.org/2000/svg" width="100%" height="100%" viewBox="0 0 101.65 16" preserveAspectRatio="none"><path d="M86.26,15.77a.35.35,0,0,1-.35-.34V.49c0-.15,0-.31.15-.39a2.13,2.13,0,0,1,.83-.1h1A2.32,2.32,0,0,1,90.2,2.32V8l3.59-3.61c.67-.67,3.23-3.24,3.26-3.26A3.73,3.73,0,0,1,99.62,0h.62a1.44,1.44,0,0,1,1,.39,1.39,1.39,0,0,1,.31.51,2.15,2.15,0,0,1,.07.58,2.83,2.83,0,0,1-.78,1.93L97,7.34a1.51,1.51,0,0,0-.14,2.07,6.93,6.93,0,0,0,2.13,1.32l1,.39a2.86,2.86,0,0,1,1.76,2.65v1.62a.37.37,0,0,1-.35.38h-.64a5.72,5.72,0,0,1-2-.49l-4.41-1.84a5.07,5.07,0,0,0-1.5-.42,4.38,4.38,0,0,0-.52,0,2.38,2.38,0,0,0-.34,0,2.06,2.06,0,0,0-1.25.61c-.57.57-1,1-1,1a3.79,3.79,0,0,1-2.57,1.14ZM68.45,13.84A8.38,8.38,0,0,1,66,12.31l-1.74-1.37a7.56,7.56,0,0,0,2.2-1.63,3.59,3.59,0,0,0,.86-2.46,4.79,4.79,0,0,0-.82-2.67A8.09,8.09,0,0,0,64.36,2,11,11,0,0,0,61.44.54,10,10,0,0,0,58.26,0H51.89a.35.35,0,0,0-.34.35V15.26c0,.15,0,.31.15.39a2.53,2.53,0,0,0,.89.12,3.74,3.74,0,0,0,1.1-.15,2.87,2.87,0,0,0,1.35-1A4.22,4.22,0,0,0,55.79,12V5.49a1.89,1.89,0,0,1,.05-.43A1.47,1.47,0,0,1,56,4.78c.48-.89,2.14-1.24,3.93-.79,2.38.6,3.08,2.24,2.82,3a2.17,2.17,0,0,1-2.19,1.24,5.34,5.34,0,0,1-1.59-.26s-.35-.1-.62-.2a2.42,2.42,0,0,0-.55-.15c-.18,0-.28.14-.28.43V9.69a1.91,1.91,0,0,0,.59,1.4s5.2,4.1,5.2,4.1a2.76,2.76,0,0,0,1.64.58h3.43c.24,0,.36-.16.36-.45V14.23a.46.46,0,0,0-.25-.39M47.7,11.68H43.13a4.66,4.66,0,0,1-1.82-.42,5.83,5.83,0,0,1-1.47-1.12,5.1,5.1,0,0,1-1-1.6,5.25,5.25,0,0,1-.35-1.87,2.52,2.52,0,0,1,.7-1.91,3,3,0,0,1,.5-.36,2.36,2.36,0,0,1,.65-.25,4.29,4.29,0,0,1,.9-.09,4.1,4.1,0,0,1,.88.09,4.69,4.69,0,0,1,1.52.62,8.29,8.29,0,0,1,2,1.8H40.88c-.29,0-.43.13-.43.38a2.54,2.54,0,0,0,.27,1.21,3.36,3.36,0,0,0,3,1.8h4.43a1.88,1.88,0,0,0,1.61-.62A2.06,2.06,0,0,0,50.12,8a6,6,0,0,0-.72-2.75,9.38,9.38,0,0,0-1.95-2.61A9.84,9.84,0,0,0,44.61.75,8,8,0,0,0,41.22,0H34.71a.35.35,0,0,0-.34.35V6.83a8.53,8.53,0,0,0,.7,3.44A9.09,9.09,0,0,0,39.8,15a8.29,8.29,0,0,0,3.44.73h6.53a.35.35,0,0,0,.35-.34V14.12a2.45,2.45,0,0,0-.65-1.8,2.37,2.37,0,0,0-1.77-.64M32.93,2.32A2.32,2.32,0,0,0,30.61,0H28.15a.44.44,0,0,0-.31.13L22.92,4.75a9.36,9.36,0,0,1-6.45,2.48A9.32,9.32,0,0,1,9.81,4.55L6.16,1.12A4.16,4.16,0,0,0,3.4,0H.47A.47.47,0,0,0,0,.47v13a2.32,2.32,0,0,0,2.32,2.32H3.83a.47.47,0,0,0,.46-.47V10.69A2.2,2.2,0,0,1,6.46,8.48c2.22,0,3.8,1.9,5.23,3.16,1.76,1.55,3.11,3,4.78,3s3-1.49,4.76-3c1.44-1.26,3-3.16,5.24-3.16a2.2,2.2,0,0,1,2.17,2.18v2.79A2.32,2.32,0,0,0,31,15.77h1.5a.47.47,0,0,0,.47-.47v-13M84.14,9.17H81.76A1.64,1.64,0,0,0,80,10.31a2.38,2.38,0,0,1-.81,1.19,2.3,2.3,0,0,1-1.45.45,3.43,3.43,0,0,1-1.68-.49,6,6,0,0,1-1.54-1.22,6.59,6.59,0,0,1-1.12-1.7A4.54,4.54,0,0,1,73,6.68a2.62,2.62,0,0,1,.7-1.9,2.44,2.44,0,0,1,1.78-.72A4,4,0,0,1,77.9,5a1.73,1.73,0,0,0,1,.36,1.68,1.68,0,0,0,1.16-.61l1.62-1.6c.11-.1.14-.2.11-.28a.79.79,0,0,0-.19-.27A10.21,10.21,0,0,0,78.76.68,8.15,8.15,0,0,0,75.49,0H69.1c-.24,0-.37.14-.37.43V6.8a8.45,8.45,0,0,0,.75,3.51,9.6,9.6,0,0,0,2,2.92,10,10,0,0,0,2.9,2,8,8,0,0,0,3.38.75,7.07,7.07,0,0,0,2.6-.47,6.34,6.34,0,0,0,2.08-1.33,6.09,6.09,0,0,0,1.4-2,7.4,7.4,0,0,0,.62-2.57c0-.28-.1-.43-.34-.43" fill="#EB3C96" data-color-group="0"/></svg>